<?xml version="1.0" standalone="no"?>
<!DOCTYPE svg PUBLIC "-//W3C//DTD SVG 20010904//EN"
 "http://www.w3.org/TR/2001/REC-SVG-20010904/DTD/svg10.dtd">
<svg version="1.0" xmlns="http://www.w3.org/2000/svg"
 width="511.000000pt" height="488.000000pt" viewBox="0 0 511.000000 488.000000"
 preserveAspectRatio="xMidYMid meet">

<g transform="translate(0.000000,488.000000) scale(0.100000,-0.100000)"
fill="#fff" stroke="none">
<path d="M2227 4729 c-56 -13 -108 -43 -148 -86 -20 -21 -142 -171 -271 -333
-210 -265 -464 -583 -1287 -1614 -282 -354 -295 -377 -289 -486 7 -130 -6
-117 559 -569 1429 -1144 1787 -1427 1824 -1446 88 -43 228 -24 300 42 17 16
73 82 126 148 124 156 859 1078 1005 1261 79 99 111 147 108 160 -5 18 -19 19
-361 17 l-357 -2 -43 -118 c-24 -65 -55 -148 -69 -185 l-26 -68 -234 0 c-129
0 -234 4 -234 8 0 5 30 83 66 173 127 316 625 1552 667 1654 l25 60 201 3 201
2 15 -32 c15 -33 111 -272 336 -830 68 -170 126 -308 129 -308 12 2 267 333
289 377 36 71 35 169 -2 246 -26 52 -47 72 -250 234 -122 98 -635 507 -1140
911 -505 403 -932 741 -950 752 -24 14 -147 46 -151 39 -1 -1 -18 -5 -39 -10z
m-216 -1390 c220 -28 389 -105 542 -248 235 -220 337 -531 283 -861 -57 -348
-307 -633 -647 -738 -112 -34 -208 -42 -535 -42 l-314 0 0 950 0 950 293 0
c162 0 332 -5 378 -11z"/>
<path d="M1780 2400 l0 -553 103 6 c113 7 164 21 240 71 119 75 216 220 237
351 33 201 -13 380 -130 508 -96 105 -194 150 -358 162 l-92 8 0 -553z"/>
<path d="M3780 2715 c-6 -16 -52 -135 -101 -263 -49 -129 -89 -235 -89 -237 0
-2 90 -4 200 -4 110 0 200 3 200 7 0 4 -45 124 -99 267 -95 247 -100 259 -111
230z"/>
</g>
</svg>
